<?xml version="1.0" standalone="no"?>
<!DOCTYPE svg PUBLIC "-//W3C//DTD SVG 20010904//EN"
 "http://www.w3.org/TR/2001/REC-SVG-20010904/DTD/svg10.dtd">
<svg version="1.0" xmlns="http://www.w3.org/2000/svg"
 width="904.000000pt" height="904.000000pt" viewBox="0 0 904.000000 904.000000"
 preserveAspectRatio="xMidYMid meet">

<g transform="translate(0.000000,904.000000) scale(0.100000,-0.100000)"
fill="#000000" stroke="none">
<path d="M3840 8331 l0 -240 43 -5 c227 -28 308 -40 403 -61 l111 -23 99 24
c178 44 578 104 689 104 13 0 15 29 15 220 l0 220 -680 0 -680 0 0 -239z"/>
<path d="M5190 7929 c-69 -5 -178 -16 -242 -24 -64 -8 -124 -15 -132 -15 -37
0 -9 -19 93 -64 299 -130 588 -331 839 -583 l133 -133 72 -15 c426 -89 785
-284 1097 -595 412 -413 633 -941 705 -1685 18 -188 21 -667 5 -855 -45 -529
-142 -911 -319 -1258 -109 -212 -211 -355 -374 -521 -415 -423 -889 -628
-1514 -657 l-153 -7 0 -388 0 -389 123 0 c1047 0 2071 457 2647 1180 415 521
622 1144 681 2051 15 239 7 850 -15 1029 -101 844 -390 1486 -895 1991 -536
534 -1192 837 -2006 924 -175 19 -579 27 -745 14z"/>
<path d="M3165 7889 c-713 -65 -1355 -307 -1845 -695 -134 -106 -365 -345
-470 -486 -360 -481 -559 -1000 -646 -1688 -21 -169 -30 -722 -15 -918 66
-824 352 -1609 778 -2137 173 -214 443 -451 672 -589 482 -292 1091 -435 1854
-436 l147 0 0 73 0 73 -41 23 c-148 83 -393 264 -540 398 -60 55 -71 60 -124
67 -241 28 -681 201 -919 360 -513 344 -818 867 -972 1666 -72 377 -94 966
-49 1340 40 335 122 675 230 955 236 613 700 1062 1322 1278 442 154 1031 188
1498 87 311 -68 623 -222 830 -411 122 -111 229 -233 306 -348 76 -115 242
-437 280 -544 17 -49 28 -67 39 -64 8 2 174 39 369 83 227 50 355 84 359 92 7
20 -81 236 -161 395 -177 352 -428 654 -738 887 -384 289 -810 454 -1360 526
-146 19 -650 27 -804 13z"/>
<path d="M3230 7110 l-115 -9 -123 -127 c-523 -539 -815 -1282 -883 -2249 -15
-220 -6 -778 15 -975 85 -762 301 -1349 675 -1830 98 -127 320 -349 461 -463
115 -93 353 -257 372 -257 4 0 8 291 8 646 0 614 -1 647 -19 672 -36 53 -112
194 -152 285 -127 285 -210 607 -256 992 -26 218 -26 875 0 1090 72 593 217
1005 485 1379 74 103 260 296 376 390 95 77 265 191 329 222 20 10 37 21 37
26 0 14 -120 69 -239 108 -123 41 -262 72 -401 90 -121 15 -434 20 -570 10z"/>
<path d="M4533 6720 c-191 -100 -307 -185 -467 -340 -60 -58 -135 -138 -167
-178 l-59 -73 0 -2830 0 -2829 680 0 680 0 0 2802 0 2801 -51 96 c-116 218
-265 414 -408 537 -45 38 -85 70 -89 71 -4 2 -58 -24 -119 -57z"/>
<path d="M5595 3256 c-46 -157 -98 -308 -141 -412 l-54 -131 2 -494 3 -494 94
0 94 0 70 75 c224 242 418 546 553 866 46 111 144 387 144 408 0 7 -24 17 -52
23 -29 7 -201 47 -381 91 -216 52 -330 76 -332 68z"/>
</g>
</svg>
